<svg id="Calque_1" data-name="Calque 1" xmlns="http://www.w3.org/2000/svg" viewBox="0 0 841.89 236.11">
  <defs>
    <style>
      .cls-1 {
        fill: #9d9c9c;
      }

      .cls-2 {
        fill: #005677;
      }

      .cls-3 {
        fill: #b78b1e;
      }

      .cls-4 {
        fill: #fff;
      }

      .cls-5 {
        fill: #004661;
      }
    </style>
  </defs>
  <title>GOB-SPRB-BILINGUE NL-FR</title>
  <g>
    <g>
      <path class="cls-1" d="M254.09,135.23c-4.32,0-6.76-2.44-6.76-6.35,0-4.31,2.61-6.1,6.51-6.1,5.62,0,7.08,2.2,7.08,6.1,0,4.39-2.68,6.35-6.83,6.35"/>
      <path class="cls-1" d="M627.38,122.72c-4.67-7.21-14.15-17.33-24.69-17.33a13.76,13.76,0,0,0-13.92,14.06c0,8.53,7.9,13.84,14.78,13.84,7.55,0,11.2-2.37,17.56-1.08a17.36,17.36,0,0,1,9,4.71,1.62,1.62,0,0,0,2,.32c.54-.37.92-1.06.54-2.71a39,39,0,0,0-5.29-11.81"/>
      <path class="cls-1" d="M667.3,105.39c-10.54,0-20,10.11-24.67,17.33a38.87,38.87,0,0,0-5.31,11.81c-.38,1.65,0,2.34.55,2.71a1.62,1.62,0,0,0,2-.32,17.2,17.2,0,0,1,9-4.71c6.38-1.29,10,1.08,17.57,1.08,6.87,0,14.77-5.31,14.77-13.84a13.76,13.76,0,0,0-13.92-14.06"/>
      <path class="cls-1" d="M643.93,81.61a11,11,0,0,0-8.93,4,11,11,0,0,0-8.94-4,13.58,13.58,0,0,0-13.54,13.78,14.3,14.3,0,0,0,2.74,8.19,35.74,35.74,0,0,0,6.51,6.69,41.74,41.74,0,0,1,11.6,15,1.69,1.69,0,0,0,3.26,0,41.52,41.52,0,0,1,11.6-15,36.39,36.39,0,0,0,6.51-6.69,14.37,14.37,0,0,0,2.73-8.19,13.57,13.57,0,0,0-13.54-13.78m7.48,19.47c-4.9,6.7-11.56,8.85-16.41,19.35-4.85-10.5-11.51-12.65-16.41-19.35a9.33,9.33,0,0,1-1.94-5.61,9.82,9.82,0,0,1,9.74-9.83,9.56,9.56,0,0,1,8.61,6,9.53,9.53,0,0,1,8.61-6,9.81,9.81,0,0,1,9.73,9.83,9.38,9.38,0,0,1-1.93,5.61"/>
      <path class="cls-2" d="M29.18,110.56c-.27,3.42-.82,4.15-1.86,4.06-.78-.06-4.38-.4-5.1-.46s-1.9-.1-2.65-.16c-1.05-.09-1.49-.54-1.25-3.54.32-3.94,1.67-5.36,3.43-5.22,2.2.18,2.3,2,2.52,2s.53-1.9,2.3-1.75c1.34.11,2.95.93,2.61,5.07M22.92,112c.34,0,.44-.1.56-1.55.15-1.89-.42-2.62-1.35-2.69s-1.61.61-1.78,2.66c-.08,1,0,1.37.54,1.42Zm1.79-1.2c-.09,1.08-.06,1.23.4,1.35a10.88,10.88,0,0,0,1.52.12c.25,0,.63-.15.75-1.58.16-2-.31-2.64-1.16-2.71s-1.34.59-1.51,2.82"/>
      <path class="cls-2" d="M26.67,101.54l2.77.54c.47.09.53.5.39,1.37-.18,1.06-.54,1.12-.95,1s-2.05-.44-4.87-1l-3.68-.72c-1-.2-1.14-.62-.47-4,.71-3.57,2.28-4.8,4.45-4.37,2.78.55,2,3,2.44,3.08s.57-.93,2-1.1,1.33-1,2-.9c.3.06.63.41.44,1.37-.28,1.42-.92,2-2.82,2.13-1.44.07-1.79.52-2,1.7-.12.59,0,.78.34.84m-4.86-2.4c-.22,1.11-.16,1.34.49,1.47l2.09.43c.36.08.6,0,.87-1.38C25.6,98,25.05,97,24,96.81s-1.84.44-2.21,2.33"/>
      <path class="cls-2" d="M22.49,91.89c-.57-.19-.85-.42-.5-1.51.31-.94.74-1.06,1.19-.91L28,91.08c1.88.61,3,.16,3.47-1.21s-.31-2.34-2.11-2.93l-4.84-1.55c-.52-.17-.74-.52-.44-1.46.25-.76.68-.91,1.24-.73,1.05.35,1.69.57,4.47,1.48,3,1,4.49,2.7,3.43,5.94-1,3-3.24,3.72-6.18,2.76Z"/>
      <path class="cls-2" d="M37.18,77.09a1.1,1.1,0,0,1,.68.08c.29.13.42.49.06,1.26-.45,1-.7,1.06-2,1.09s-2,.08-2.51.11c-.33,0-.47,0-.52.1s0,.19.27.48l1.73,2.15c.7.86.72,1,.27,2-.34.73-.7.89-1,.77s-.44-.3-1.57-2.15-1.59-2.39-1.76-2.47-.29-.07-1.6.15-2.45.51-3,.57a1.07,1.07,0,0,1-.64-.08c-.21-.1-.33-.35.06-1.2a1.55,1.55,0,0,1,1.64-1.16c1-.12,1.56-.13,2.09-.2s.93-.06,1-.19-.07-.29-.42-.78-.78-1-1.58-2c-.27-.34-.44-.64,0-1.58.36-.77.62-.85.87-.74s.56.51,1.28,1.64a14,14,0,0,0,1.89,2.71c.16.08.23,0,2-.2Z"/>
      <path class="cls-2" d="M36.57,72.34a.33.33,0,0,0,.15.5l1,.62c.44.26.67.1.94-.34l2.09-3.57c.26-.45.55-.48,1.25-.06.55.32.7.57.45,1-.14.24-.73,1.21-1.4,2.34L39.21,76c-.33.56-.61.48-.94.29s-2.85-1.74-4.12-2.49-3.26-1.9-3.67-2.14-.56-.47-.22-1.06c1.41-2.38,2.88-4.74,3.11-5.13s.54-.48,1.19-.09.72.69.42,1.2c-.12.19-1.76,2.85-2.06,3.35a.45.45,0,0,0,.18.7l1.46.86c.31.18.49.18.7-.18l2-3.42c.24-.4.51-.46,1-.14s.65.53.4.94Z"/>
      <path class="cls-2" d="M45.49,63c.24-.34.54-.49,1.2,0s.63.82.32,1.24c-.16.22-.45.59-1.16,1.56L44,68.39a.78.78,0,0,1-1.27.23c-.31-.23-2.51-1.93-3.72-2.81s-3-2.13-3.42-2.41-.49-.69.05-1.43.86-.87,1.39-.49l5.71,4.24c.43.31.56.31.92-.19Z"/>
      <path class="cls-2" d="M50.53,57.1c.28-.31.59-.43,1.2.1s.55.88.21,1.27c-.18.21-.5.55-1.29,1.46l-2.08,2.41a.78.78,0,0,1-1.28.1c-.29-.25-2.34-2.13-3.46-3.12s-2.84-2.39-3.2-2.7-.43-.73.18-1.42.93-.79,1.42-.36,4.94,4.38,5.32,4.72.53.36.93-.11Z"/>
      <path class="cls-2" d="M52,52.49A.33.33,0,0,0,52,53l.81.87c.35.37.62.28,1-.07l3-2.86c.38-.36.66-.31,1.23.29.43.45.51.74.15,1.08l-2,1.87c-.93.88-2.36,2.26-2.65,2.54-.47.45-.72.3-1,0s-2.26-2.45-3.28-3.53-2.61-2.71-2.94-3.06-.41-.61.08-1.07c2-1.91,4.07-3.77,4.4-4.09s.64-.31,1.16.24.5.86.08,1.26c-.17.16-2.47,2.26-2.9,2.67a.45.45,0,0,0,0,.72l1.17,1.23c.24.26.42.3.72,0l2.89-2.74c.34-.32.61-.3,1,.16s.48.67.13,1Z"/>
      <path class="cls-2" d="M62,47.25c1-.75,1.09-1.32.73-1.78-.47-.63-1-.63-3.28.4s-3.51.58-4.33-.49c-1.45-1.9-.65-3.79,1.18-5.19,2.41-1.85,4.3-1.14,5-.19a.94.94,0,0,1-.27,1.48,1.1,1.1,0,0,1-1.35,0,1.83,1.83,0,0,0-2.45.23c-.87.66-1,1.39-.52,2s1,.91,2.93,0c2.78-1.37,4-.87,4.82.26,1,1.28.7,3.14-1.56,4.87s-4.56,1.23-5.26.31c-.42-.55-.36-1,.09-1.35,1.12-.86,2,1.1,4.24-.59"/>
      <path class="cls-2" d="M68,38.05l-1.72-3.18c-.38-.7-.32-1.28,2.61-2.86,3.13-1.69,5.12-.85,6,.82,1.07,2,.25,3.66-2.07,4.92-.93.51-1.22.56-1.58.75-.2.11-.21.22-.13.37s1.07,2.05,1.3,2.47.07.82-.67,1.22-1.21.3-1.42-.09Zm2.07-1.19c.21.38.67.38,1.71-.18,1.4-.76,1.75-1.7,1.28-2.58-.61-1.13-1.72-1.13-3.2-.33-1,.51-1,.82-.75,1.3Z"/>
      <path class="cls-2" d="M80.21,34.52c.06.15.89,2.17,1.06,2.61s-.13.72-.93,1.08c-1,.42-1.24.15-1.39-.23s-.75-2-1.81-4.63c-1-2.48-1.23-3-1.41-3.48-.37-.93-.1-1.29,3.09-2.56,3.38-1.35,5.26-.7,6.08,1.35C86,31.29,83.49,32,83.65,32.38s1.09,0,2,1.08,1.58.55,1.83,1.18c.11.28,0,.75-.9,1.11-1.35.53-2.2.32-3.33-1.2-.84-1.18-1.41-1.22-2.53-.77-.56.22-.64.42-.52.74m-.63-5.38c-1,.41-1.21.6-1,1.21l.77,2c.14.34.35.49,1.64,0,1.62-.64,2.09-1.61,1.71-2.59s-1.37-1.3-3.16-.58"/>
      <path class="cls-2" d="M89.9,30.35c-.27.07-.29.27-.24.47s.17.65.3,1.15.42.53.92.4l4-1.12c.5-.14.73,0,1,.83.16.61.1.9-.38,1l-2.63.71-3.54,1c-.62.18-.77-.07-.87-.44s-.85-3.22-1.24-4.65-1-3.63-1.16-4.09-.07-.73.58-.91c2.66-.73,5.35-1.41,5.8-1.54s.71,0,.91.76,0,1-.52,1.15c-.23.07-3.25.84-3.81,1a.45.45,0,0,0-.36.63L89,28.34c.1.35.23.47.63.36l3.84-1.06c.44-.12.67,0,.84.63s.1.82-.36.95Z"/>
      <path class="cls-2" d="M98.39,25.44c1.17,2.37,1.81,3.55,2.13,4.16a.28.28,0,0,0,.33.19c.19,0,.23-.13.25-.29.14-.85.41-2.87,1.08-7.45.09-.61.28-.85,1.12-1s1,.06,1,.41a3.44,3.44,0,0,1-.07.95c-.11.63-1.27,7.15-1.39,7.84-.2,1.18-.61,1.62-1.71,1.8A1.81,1.81,0,0,1,99,31c-.42-.73-.88-1.54-2.11-3.9-1.64-3.13-2-3.58-2.12-4s.07-.63.94-.77,1.15,0,1.41.55Z"/>
      <path class="cls-2" d="M108.88,27c-.28,0-.34.21-.33.41s0,.68,0,1.19.3.61.81.58l4.13-.25c.52,0,.7.19.75,1,0,.63-.09.9-.58.93L111,31l-3.67.22c-.64,0-.74-.23-.76-.62s-.14-3.33-.23-4.81-.24-3.76-.27-4.23.09-.73.76-.77c2.76-.16,5.54-.26,6-.28s.69.18.74.93-.18,1-.77,1l-3.93.16a.45.45,0,0,0-.48.54l.1,1.69c0,.36.12.51.53.48l4-.22c.46,0,.66.16.7.79s-.08.82-.56.85Z"/>
      <path class="cls-2" d="M116.36,30.83a.73.73,0,0,1-.75-.77c0-.3.22-3.52.29-4.82s.15-3.3.16-3.5c0-.86.37-1.34,1.38-1.28s1.23.53,1.58,1.18c.23.44,1.43,2.63,2.34,4.39s1,1.95,1.07,2,.11,0,.12-.18,0-1.5.11-3.16c.13-2.48.08-2.33.12-3.12,0-.46.27-.72.84-.7l.42,0c.49,0,.77.24.74.79l-.44,8.2c0,.9-.4,1.39-1.54,1.33-.88-.05-1.3-.58-1.69-1.35-.28-.55-1.57-3-2.17-4.19-.83-1.73-.83-2-1-2s-.08,0-.08.15,0,1.34-.11,2.95c0,.32-.14,2.79-.17,3.45,0,.51-.45.7-1,.67Z"/>
      <path class="cls-2" d="M129.41,24c0-.25.05-.43-.27-.49l-1.89-.3c-.56-.09-.68-.44-.57-1.11s.39-1.05.88-1c1.63.27,3.13.54,5.1.86l1.51.21c.55.09.76.35.62,1.2s-.44,1-.73.93l-2-.34c-.3,0-.36.1-.39.31l-1.18,7.22c-.07.43-.18.74-1.23.57s-1.11-.46-1-1Z"/>
      <path class="cls-2" d="M134.85,33.11a.7.7,0,0,1-.59-1c0-.13.21-.79.92-3.68s1-4.22,1.18-4.94c.12-.51.46-.67,1-.54l.57.14c.53.12.66.42.55.9l-.66,2.8c-.41,1.76-1.22,5-1.39,5.76s-.49.79-1,.67Z"/>
      <path class="cls-2" d="M139.17,28.63A5.47,5.47,0,0,1,140.83,26a4.65,4.65,0,0,1,5-.83c3,1,4.2,3.41,3.11,6.72-.9,2.71-3.13,4.75-6.65,3.59-3.25-1.08-4.1-4-3.14-6.89m7.63,2.64c.56-1.69.19-3.48-1.65-4.09a2.51,2.51,0,0,0-2.39.28,3.62,3.62,0,0,0-1.33,2.05c-.69,2.09-.1,3.61,1.59,4.16s3.12-.38,3.78-2.4"/>
      <path class="cls-2" d="M149.21,37.73a.72.72,0,0,1-.4-1c.14-.28,1.55-3.18,2.11-4.35s1.39-3,1.48-3.17c.37-.78.85-1.1,1.77-.66s.92,1,1,1.69c.05.5.33,3,.49,5,.16,1.82.13,2.17.25,2.22s.11,0,.17-.12.59-1.38,1.31-2.88c1.07-2.24,1-2.12,1.3-2.83a.68.68,0,0,1,1-.33l.38.18a.67.67,0,0,1,.38,1L157,39.87c-.39.81-.9,1.13-1.93.64A2,2,0,0,1,154,38.62c0-.62-.32-3.33-.4-4.7-.12-1.92,0-2.18-.15-2.24s-.09,0-.13.1-.54,1.23-1.23,2.68c-.14.3-1.19,2.53-1.48,3.13s-.67.48-1.13.26Z"/>
      <path class="cls-2" d="M164.48,46.44c-2.23-1.58-2.54-3.38-1.51-4.83,1.23-1.75,2.76-.71,3-1a6,6,0,0,1,.77-2.06c1-1.36,2.54-1.72,4.24-.51s2,2.74,1.07,4c-.39.55-.85.72-1.39.34a.93.93,0,0,1-.3-1.37,1,1,0,0,0-.46-1.38,1.13,1.13,0,0,0-1.68.32c-1.1,1.55-.33,4.89,0,5.11s.54-.14,1.22-1.11c.33-.46.69-.65,1.33-.19a.84.84,0,0,1,.26,1.34,5.16,5.16,0,0,1-1.81,1.7c-.12.17,0,.42.72.91.38.26.54.57.09,1.21s-.8.65-1.52.14c-1-.71-1.06-1.51-1.34-1.7a5.32,5.32,0,0,1-2.62-1m.24-3.65c-.37.52-.33,1.4.72,2.13.49.35.74.45.85.3s-.12-.53-.25-1.46,0-1.23-.22-1.36-.71-.16-1.1.39"/>
      <path class="cls-2" d="M177.42,55c.88.87,1.46.9,1.87.48.56-.55.49-1.06-.84-3.2s-1.06-3.39-.11-4.34c1.68-1.71,3.67-1.17,5.31.45,2.16,2.14,1.71,4.1.87,5A1,1,0,0,1,183,53.3a1.11,1.11,0,0,1-.22-1.33,1.83,1.83,0,0,0-.56-2.4c-.78-.77-1.52-.81-2.08-.24s-.76,1.14.43,2.9C182.32,54.8,182,56,181,57c-1.14,1.16-3,1.13-5-.87s-1.85-4.35-1-5.17c.49-.49,1-.5,1.36-.1,1,1-.82,2.17,1.15,4.12"/>
      <path class="cls-2" d="M184.72,59.14a.33.33,0,0,0-.52,0c-.15.11-.54.41-.94.74s-.32.6,0,1L185.89,64c.34.41.27.69-.37,1.21s-.78.45-1.09.07c-.18-.21-.89-1.11-1.72-2.12s-2.08-2.52-2.34-2.83c-.41-.51-.24-.74.06-1s2.61-2.08,3.75-3,2.9-2.41,3.27-2.71.64-.36,1.07.16c1.75,2.14,3.46,4.33,3.75,4.69s.26.66-.32,1.14-.9.44-1.27,0c-.15-.18-2.08-2.63-2.45-3.08a.44.44,0,0,0-.71-.07l-1.32,1.07c-.27.22-.33.39-.07.72l2.52,3.08c.3.35.26.63-.23,1s-.71.42-1,0Z"/>
      <path class="cls-2" d="M192.88,73.25c-1,.63-3.26.35-5-2.27-1.9-3-.87-5.57,1.83-7.31a6.12,6.12,0,0,1,2.89-1A4.52,4.52,0,0,1,197.1,65c1.74,2.7,1,4.87-.36,5.73a1,1,0,0,1-1.51-.3c-.38-.58-.16-1.1.19-1.72a2.05,2.05,0,0,0,0-2.51A2.38,2.38,0,0,0,193.3,65a4.33,4.33,0,0,0-2.3.81c-1.86,1.2-2.24,2.73-1.31,4.17,1.37,2.11,2.77.93,3.45,2a.8.8,0,0,1-.26,1.28"/>
      <path class="cls-2" d="M199.76,71.45c.55-.27.91-.29,1.41.74s.2,1.27-.23,1.48-3.43,1.63-4.58,2.19c-1.78.86-2.28,2-1.66,3.27s1.85,1.47,3.56.64l4.55-2.24c.49-.23.9-.14,1.33.75.34.72.15,1.13-.38,1.38-1,.49-1.62.77-4.25,2-2.82,1.37-5.1,1.17-6.59-1.9-1.37-2.82-.24-4.92,2.54-6.27Z"/>
      <path class="cls-2" d="M199.74,86.37l-2.66.94c-.46.15-.71-.16-1-1-.38-1-.1-1.24.29-1.37s2-.66,4.71-1.59c2.53-.87,3.09-1.08,3.54-1.24.95-.33,1.3,0,2.41,3.2,1.19,3.45.46,5.3-1.63,6-2.68.93-3.26-1.57-3.66-1.43s0,1.09-1.17,2-.62,1.55-1.27,1.78c-.29.1-.74,0-1.06-1-.47-1.37-.22-2.21,1.36-3.26,1.21-.79,1.28-1.35.88-2.49-.19-.57-.39-.67-.71-.56m5.41-.37c-.37-1.07-.54-1.24-1.17-1l-2,.68c-.35.12-.51.32-.06,1.63.57,1.65,1.52,2.17,2.51,1.83s1.36-1.3.74-3.12"/>
      <path class="cls-2" d="M199,95.57a.71.71,0,0,1,.57-1c.14,0,.8-.17,3.7-.88,2.74-.68,4.2-1.06,4.92-1.24.51-.13.81.09.95.65l.14.56a.65.65,0,0,1-.55.91L206,95.3c-1.75.45-5,1.26-5.75,1.44s-.92-.06-1.05-.56Z"/>
      <path class="cls-2" d="M208,99.28c.24,0,.42-.09.36-.41L208,97c-.1-.56.19-.79.85-.91s1.12,0,1.21.5c.29,1.63.54,3.14.9,5.09l.3,1.5c.1.55-.07.83-.92,1s-1.07-.09-1.12-.38c-.09-.52-.35-2-.35-2,0-.3-.21-.3-.42-.27l-7.2,1.32c-.43.07-.76.07-.94-1s.06-1.2.59-1.3Z"/>
      <path class="cls-2" d="M205.52,108.76c0-.27-.21-.33-.41-.32l-1.19.08c-.51,0-.61.32-.57.83s.31,3.61.35,4.12-.17.71-1,.78c-.64,0-.91-.07-.95-.56,0-.28-.1-1.42-.21-2.73s-.28-3.26-.31-3.66c-.06-.64.22-.74.6-.78s3.33-.22,4.8-.34,3.76-.34,4.23-.38.74.06.79.74c.23,2.75.39,5.53.43,6s-.16.69-.91.76-1-.15-1-.74c0-.23-.21-3.34-.26-3.93a.45.45,0,0,0-.55-.46l-1.69.14c-.35,0-.5.13-.47.54l.33,4c0,.47-.15.67-.78.72s-.82-.06-.86-.53Z"/>
      <path class="cls-2" d="M203.93,122.66a1.78,1.78,0,0,1,2-1.7,1.88,1.88,0,0,1,2,2.05,1.79,1.79,0,0,1-2.12,1.88,2,2,0,0,1-1.86-2.23"/>
      <path class="cls-2" d="M26.94,127a1.78,1.78,0,0,1-1.71,2,1.89,1.89,0,0,1-2.28-1.7,1.8,1.8,0,0,1,1.79-2.21,2,2,0,0,1,2.2,1.89"/>
      <path class="cls-2" d="M21.5,141.63c-.76-3.22-.47-4.06.51-4.29l4.83-1.1c.67-.16,1.78-.47,2.49-.63,1-.24,1.53,0,2.2,2.88.89,3.72.06,5.43-1.59,5.83-2.08.49-2.71-1.14-2.92-1.09s.07,1.9-1.6,2.29c-1.26.3-3,0-3.92-3.89m4.06-1.54c-.24-1-.32-1.15-.77-1.12a9,9,0,0,0-1.44.34c-.23.05-.54.33-.22,1.68.46,1.91,1.08,2.34,1.88,2.15s1-.94.55-3m1.28-1.64c-.32.07-.37.23-.05,1.59.42,1.79,1.17,2.29,2,2.08s1.31-1,.85-3c-.24-1-.43-1.26-.92-1.14Z"/>
      <path class="cls-2" d="M27.43,149.58l-2.56,1c-.44.15-.69-.15-1-.94-.39-1-.12-1.2.26-1.33s1.92-.68,4.53-1.63c2.43-.88,3-1.09,3.4-1.25.92-.33,1.26-.06,2.39,3.05,1.21,3.31.53,5.12-1.47,5.85-2.59.94-3.19-1.46-3.57-1.32s0,1.05-1.1,1.91-.58,1.51-1.19,1.74c-.28.1-.73,0-1.05-.91-.48-1.32-.25-2.13,1.26-3.17,1.16-.79,1.21-1.34.81-2.43-.2-.55-.39-.64-.7-.53m5.23-.45c-.38-1-.55-1.19-1.15-1l-1.94.69c-.34.13-.49.32,0,1.59.58,1.58,1.51,2.07,2.46,1.72s1.3-1.28.66-3"/>
      <path class="cls-2" d="M35.67,154.65c.52-.26.87-.29,1.37.7s.22,1.23-.19,1.43-3.3,1.64-4.4,2.2c-1.71.86-2.18,2-1.55,3.19s1.81,1.4,3.45.57l4.37-2.25c.47-.24.86-.15,1.29.7.36.7.17,1.09-.34,1.35l-4.07,2c-2.7,1.37-4.93,1.22-6.41-1.73-1.37-2.7-.32-4.76,2.34-6.11Z"/>
      <path class="cls-2" d="M36.4,171.77c.65,1,1.2,1.15,1.67.83.64-.42.67-.91-.16-3.2s-.32-3.42.76-4.14c1.93-1.27,3.71-.37,4.94,1.49,1.62,2.46.8,4.23-.16,4.86a.91.91,0,0,1-1.42-.35,1.08,1.08,0,0,1,.06-1.31,1.78,1.78,0,0,0-.05-2.38c-.59-.88-1.28-1.07-1.93-.64s-1,.93-.17,2.83c1.13,2.78.57,3.88-.58,4.64-1.31.86-3.08.46-4.59-1.84s-.88-4.48,0-5.1c.56-.37,1-.28,1.3.18.75,1.14-1.2,1.89.28,4.13"/>
      <path class="cls-2" d="M42.58,180.06c.76.92,1.32,1,1.75.64.59-.49.57-1-.51-3.17s-.69-3.37.31-4.19c1.78-1.48,3.65-.78,5.07.94,1.88,2.26,1.26,4.11.37,4.85a.91.91,0,0,1-1.44-.2,1.06,1.06,0,0,1-.09-1.3,1.78,1.78,0,0,0-.31-2.37c-.68-.81-1.39-.92-2-.42s-.84,1,.14,2.83c1.43,2.64,1,3.79-.07,4.67s-3,.79-4.76-1.32-1.37-4.36-.51-5.08c.52-.43,1-.39,1.32,0,.87,1-1,2,.72,4.08"/>
      <path class="cls-2" d="M50.06,184.56a.33.33,0,0,0-.51,0c-.13.13-.47.46-.81.82s-.25.61.1,1l2.88,2.78c.36.36.32.63-.23,1.2s-.7.53-1.05.19c-.19-.18-1-1-1.88-1.86L46,186.2c-.45-.44-.32-.69,0-.95s2.28-2.28,3.28-3.3,2.53-2.63,2.85-3,.58-.42,1,0c1.91,1.86,3.8,3.79,4.12,4.1s.32.61-.19,1.13-.82.52-1.22.12c-.16-.16-2.28-2.31-2.69-2.7a.43.43,0,0,0-.69,0l-1.15,1.17c-.24.25-.28.42,0,.7l2.76,2.69c.32.32.32.58-.11,1s-.64.48-1,.16Z"/>
      <path class="cls-2" d="M58.28,194.65c.31.26.44.55-.06,1.17s-.82.56-1.21.24c-.21-.16-.55-.46-1.46-1.19L53.15,193c-.5-.41-.53-.78-.15-1.24.23-.29,2-2.33,2.89-3.46s2.21-2.83,2.5-3.18.68-.45,1.38.12.8.87.4,1.35-4.06,4.94-4.37,5.32-.33.52.14.9Z"/>
      <path class="cls-2" d="M66,195.55l1.78-3c.4-.67.9-.91,3.68.73,3,1.74,3.27,3.82,2.33,5.4-1.11,1.88-2.91,2.05-5.11.75-.88-.52-1.07-.74-1.41-.94-.19-.11-.29-.06-.37.08s-1.16,1.91-1.4,2.31-.64.47-1.35,0-.85-.84-.63-1.22Zm2,1.12c-.21.36,0,.74,1,1.33,1.32.78,2.28.6,2.77-.24.63-1.07.08-2-1.32-2.81-.9-.53-1.19-.43-1.46,0Z"/>
      <path class="cls-2" d="M75.92,203.55c-.07.15-.91,2.08-1.1,2.5s-.58.39-1.37.08c-1-.4-1-.75-.78-1.12s.85-1.84,2-4.39c1.06-2.35,1.28-2.89,1.47-3.31.39-.89.82-.95,3.85.4,3.22,1.44,4,3.18,3.18,5.13-1.12,2.51-3.27,1.28-3.43,1.65s.75.74.61,2.12.69,1.46.42,2.06c-.12.28-.52.51-1.38.13-1.28-.58-1.71-1.3-1.41-3.12.24-1.38-.11-1.8-1.18-2.27-.53-.24-.73-.16-.86.14m3.3-4.08c-1-.44-1.23-.43-1.49.16-.08.19-.78,1.71-.85,1.87-.15.33-.11.58,1.12,1.12,1.54.69,2.54.37,3-.56s0-1.83-1.73-2.59"/>
      <path class="cls-2" d="M86.09,206.88c-.26-.09-.38.06-.44.25l-.37,1.09c-.14.47.06.66.53.81l3.82,1.2c.48.16.57.42.33,1.17-.19.59-.39.79-.85.64l-2.51-.82-3.39-1.06c-.6-.19-.59-.47-.47-.83s1-3.06,1.46-4.42,1.08-3.48,1.22-3.92.32-.63,1-.44c2.54.82,5.09,1.69,5.51,1.83s.57.4.34,1.1-.49.82-1,.65c-.21-.07-3.06-1-3.61-1.21a.42.42,0,0,0-.61.31l-.5,1.57c-.11.33-.07.5.32.62l3.66,1.17c.43.14.54.38.36,1s-.36.72-.8.58Z"/>
      <path class="cls-2" d="M95.61,206.7c.24,2.55.42,3.83.5,4.49,0,.16,0,.26.23.29s.25,0,.33-.17c.42-.73,1.35-2.46,3.54-6.37.29-.52.55-.66,1.35-.49s.86.38.79.72a3.34,3.34,0,0,1-.4.83c-.31.53-3.62,6-4,6.61a1.71,1.71,0,0,1-2.16,1,1.77,1.77,0,0,1-1.59-1.71c-.12-.81-.26-1.71-.55-4.27-.41-3.39-.61-3.93-.53-4.36s.28-.54,1.12-.37,1,.43,1.07,1Z"/>
      <path class="cls-2" d="M105.12,211c-.26,0-.35.15-.37.34s-.08.65-.13,1.14.19.64.69.69l4,.37c.51,0,.65.29.57,1.07-.06.61-.22.85-.69.81l-2.63-.27-3.54-.33c-.63-.06-.68-.34-.64-.71s.36-3.21.5-4.64.32-3.63.36-4.09.19-.69.85-.62c2.66.26,5.33.58,5.77.62s.64.27.57,1-.32.92-.88.86l-3.79-.43a.44.44,0,0,0-.54.45l-.16,1.63c0,.35,0,.5.45.54l3.83.37c.45,0,.61.26.55.87s-.2.77-.66.73Z"/>
      <path class="cls-2" d="M113.05,215.64a.7.7,0,0,1-.77-.69c0-.3,0-3.42,0-4.68s-.08-3.19-.08-3.39c0-.83.26-1.32,1.24-1.33s1.22.43,1.61,1c.26.42,1.56,2.44,2.55,4.08s1,1.83,1.17,1.82.1,0,.1-.18-.08-1.44-.11-3.06c0-2.4-.08-2.25-.09-3,0-.45.21-.72.77-.73h.4c.48,0,.77.18.77.72l.13,7.95c0,.86-.29,1.36-1.4,1.38a1.92,1.92,0,0,1-1.72-1.18c-.31-.52-1.72-2.76-2.38-3.91-.92-1.61-.94-1.88-1.09-1.88s-.07,0-.07.15.06,1.3.09,2.85c0,.32.06,2.71.07,3.35s-.38.71-.87.71Z"/>
      <path class="cls-2" d="M124.79,207.39c0-.23-.07-.41-.38-.37l-1.84.21c-.55.07-.75-.22-.82-.87s.08-1.08.55-1.14c1.59-.19,3.06-.33,5-.56l1.47-.21c.53-.06.79.12.89,1s-.14,1-.42,1.06l-1.93.22c-.3,0-.31.18-.29.39l.84,7c0,.42,0,.73-1,.86s-1.15-.13-1.22-.65Z"/>
      <path class="cls-2" d="M133.07,213.92a.67.67,0,0,1-.9-.61c0-.14-.12-.79-.63-3.63-.5-2.68-.78-4.12-.91-4.83-.1-.5.14-.77.68-.87l.56-.11c.51-.1.75.12.84.59l.52,2.72c.33,1.72.92,4.94,1.05,5.65s-.12.88-.6,1Z"/>
      <path class="cls-2" d="M138.1,208.74c-.26.06-.28.26-.23.45s.15.64.28,1.11.41.53.88.4l3.86-1.06c.5-.13.71.05.92.81.15.59.09.87-.37,1l-2.56.67-3.43.94c-.6.16-.75-.08-.84-.44s-.79-3.13-1.17-4.51-1-3.52-1.09-4-.07-.7.56-.87c2.59-.7,5.2-1.34,5.63-1.45s.69,0,.88.74,0,1-.52,1.11c-.21.06-3.14.78-3.69.93a.44.44,0,0,0-.35.6l.43,1.59c.08.33.21.45.6.35l3.72-1c.43-.12.66,0,.82.62s.09.79-.36.91Z"/>
      <path class="cls-2" d="M154.18,207.55c-2.41,1.09-4.07.46-4.78-1.11-.85-1.89.77-2.66.63-2.95s-.8-.49-1.34-1.66c-.66-1.47-.18-3,1.65-3.8s3.26-.3,3.88,1.09c.28.6.19,1.06-.4,1.32a.89.89,0,0,1-1.28-.41,1,1,0,0,0-1.38-.3,1.1,1.1,0,0,0-.56,1.56c.76,1.68,3.93,2.67,4.26,2.53.16-.08.14-.51-.33-1.56-.23-.5-.21-.89.49-1.21a.82.82,0,0,1,1.24.44,5.1,5.1,0,0,1,.54,2.35c.08.18.36.18,1.11-.16.41-.18.74-.17,1.05.53s.15,1-.62,1.33a5.43,5.43,0,0,1-2.09.28c-.33.15-.34,1-2.07,1.73m-2.93-2c.25.56,1,.95,2.13.44.54-.24.74-.39.67-.56s-.5-.16-1.34-.51-1.05-.57-1.24-.49-.49.52-.22,1.12"/>
      <path class="cls-2" d="M163.48,194.76c2,1.63,3,2.4,3.54,2.81a.27.27,0,0,0,.37,0c.15-.1.15-.2.1-.36-.21-.8-.79-2.68-2-7-.16-.57-.08-.86.6-1.32s.87-.33,1.07,0a3.72,3.72,0,0,1,.31.87c.16.59,1.74,6.81,1.91,7.47a1.72,1.72,0,0,1-.79,2.26,1.75,1.75,0,0,1-2.33-.07c-.66-.48-1.39-1-3.42-2.6-2.7-2.1-3.23-2.34-3.47-2.7s-.19-.57.52-1,1-.43,1.45-.07Z"/>
      <path class="cls-2" d="M173.26,191.06a.32.32,0,0,0,0,.5c.12.14.41.52.73.9s.59.3,1,0l3.06-2.57c.4-.32.67-.26,1.17.35s.45.75.08,1.06l-2,1.68c-1,.79-2.43,2-2.72,2.28-.49.4-.72.24-1,0s-2-2.51-2.94-3.62-2.35-2.78-2.65-3.14-.35-.62.15-1c2.06-1.7,4.16-3.38,4.51-3.66s.64-.26,1.11.3.42.87,0,1.23c-.17.15-2.53,2-3,2.39a.43.43,0,0,0-.07.69l1.06,1.27c.21.26.38.32.69.06l3-2.46c.35-.29.61-.25,1,.22s.42.68.06,1Z"/>
      <path class="cls-2" d="M181.7,188.93a.69.69,0,0,1-1.1,0c-.1-.1-.53-.6-2.51-2.69s-2.9-3-3.4-3.55c-.35-.37-.3-.73.1-1.11l.41-.39a.62.62,0,0,1,1,0l1.93,2c1.21,1.26,3.46,3.63,3.95,4.15s.39.81,0,1.15Z"/>
      <path class="cls-2" d="M186.92,180.82c.27-.3.58-.4,1.16.13s.52.85.18,1.23c-.19.2-.5.52-1.29,1.38l-2.06,2.28a.75.75,0,0,1-1.24.08c-.28-.25-2.21-2.12-3.29-3.09s-2.69-2.38-3-2.69-.4-.71.2-1.37.92-.74,1.39-.32l5,4.69c.38.34.51.35.91-.09Z"/>
      <path class="cls-2" d="M190.22,179.63a.68.68,0,0,1-1.09.12c-.1-.08-.6-.52-2.83-2.34l-3.83-3.08c-.4-.31-.4-.68-.05-1.11l.35-.44a.63.63,0,0,1,1-.1l2.17,1.73c1.37,1.09,3.91,3.15,4.46,3.6s.5.76.19,1.14Z"/>
      <path class="cls-2" d="M193.2,170c-.3.46-.71.32-1.06.09s-.59-.55-.28-1l1.32-2c.51-.77,1-.88,1.74-.4,1.7,1.14,2.7,3,.69,6s-4.76,2.92-7.24,1.26a5.74,5.74,0,0,1-2-2.22,4.48,4.48,0,0,1,.41-4.83c1.57-2.35,3.72-3.07,5.31-2a1,1,0,0,1,.26,1.62,1.37,1.37,0,0,1-1.58.48,2,2,0,0,0-2.28.92,2.14,2.14,0,0,0-.25,2.36,4.15,4.15,0,0,0,1.59,1.73c1.75,1.17,3.3.92,4.27-.52s.45-2.25.07-2.51c-.12-.08-.21-.1-.31.05Z"/>
      <path class="cls-2" d="M199,159.4c-.45-.23-.52-.15-.71.22l-1.48,2.94c-.11.2-.08.31.23.47.63.33.69.38.94.51.89.43,1,.49,1.61.79.4.2.4.6,0,1.3s-.63.75-1,.55-1-.53-2.55-1.32l-5.24-2.72c-.53-.26-.44-.64-.11-1.29s.61-.85,1.06-.62,1.81,1,3.16,1.68c.28.14.35.13.49-.15.28-.55,1-1.84,1.43-2.77.27-.54.23-.61-.27-.86l-3-1.54c-.52-.26-.45-.66-.13-1.29s.61-.81,1.05-.59c.7.36,5.29,2.81,6.2,3.25s1,.51,1.64.81c.45.23.4.66.1,1.26s-.68.78-1,.61Z"/>
      <path class="cls-2" d="M201.25,152.63a.32.32,0,0,0,.23.45c.17.06.61.25,1.08.42s.66,0,.83-.49,1.21-3.29,1.38-3.76.45-.55,1.19-.27c.57.21.76.43.6.88-.1.25-.5,1.28-.94,2.47s-1.09,3-1.23,3.34c-.21.58-.49.56-.84.43s-3-1.17-4.35-1.67l-3.86-1.4c-.44-.17-.62-.36-.39-1,.93-2.5,1.93-5,2.08-5.42s.43-.54,1.11-.29.81.54.61,1.07c-.08.21-1.19,3-1.38,3.55a.44.44,0,0,0,.29.64l1.53.57c.33.12.5.09.64-.29l1.34-3.61c.16-.42.4-.52,1-.31s.7.39.54.82Z"/>
      <path class="cls-2" d="M207.5,146.59a.68.68,0,0,1-1,.53L203,146l-4.72-1.39c-.49-.14-.62-.47-.47-1l.16-.55a.62.62,0,0,1,.9-.48l2.67.77,5.5,1.63c.59.17.74.51.61,1Z"/>
    </g>
    <g>
      <path class="cls-2" d="M199.08,138.21c.92-4.56,3.41-6,6.39-5.37a4.87,4.87,0,0,1,3.91,3.12,6.36,6.36,0,0,1,.08,3.75c-.43,2.11-.74,2.91-1.28,2.94a6.82,6.82,0,0,1-1.49-.24c-1.15-.23-3.18-.64-7-1.37-.95-.17-1.06-.59-.61-2.83M205,135c-1.91-.38-3.34.55-3.84,3-.15.73-.05,1.06.26,1.12.76.16,5,1,5.55,1.08.31.06.58-.14.73-.86a4.1,4.1,0,0,0,0-2.49A3.52,3.52,0,0,0,205,135"/>
      <path class="cls-3" d="M15.3,94a102.71,102.71,0,0,1,199.91,0h15.3A117.66,117.66,0,0,0,0,94Z"/>
      <path class="cls-3" d="M215.21,141.3a102.71,102.71,0,0,1-199.91,0H0a117.66,117.66,0,0,0,230.51,0Z"/>
    </g>
    <g>
      <path class="cls-2" d="M60.08,120.68h4.8v3.89l5.39-4.37L75,124.93l3.34-2.69,3,3v4.07h5.35V104.12h22.7V120.2h2.48v9.11h4.44V107.73h2.1V105.4h9.16v2.33h2.31v21.34h3.26V117h2.26l2.4,3.16L153,113v16.08h1.5V125l5.3-5.31,5.3,5.31v4.12H169l3.46-8.07h-2v-5.93l-11.51-4.73.54-2.58-3.66-2.58-3.22-3.66h-2.91V97.65s-1-6.45,9-11.83L156,76.46l3.54-3.12a16.78,16.78,0,0,1-5.7-4.84c-2.47-3.33-.42-6.66-3.55-7.42s1-5,1-5H138.68s-.1,1.83-2.47,4.41-5.49,3.65-5.49,8l-9.25-6.66-16.34-1.51-21.62,9S85.12,77,78.35,80l-8.07,6.67v5.59l5.06,2.8v2.15l-4.2,1,1.94,4.73L73,104.1l-3.23.43-1.5,9.89-3.12-3.22-2,1.83-3,.08Z"/>
      <path class="cls-4" d="M117.16,130.18H111v-9.11h-2.48V105h-21v25.2H80.47v-4.59l-2.2-2.19-3.34,2.68-4.72-4.72-6.19,5v-4.84H59.21v-9.27l3.53-.1L65.16,110l2.49,2.57,1.34-8.8,3.18-.43,0-.29L70,97.58l4.51-1v-1l-5-2.8V86.27l8.58-7c6-2.68,4.73-9.5,4.67-9.79l-.15-.69.66-.28L105,59.34l16.8,1.55L130,66.81c.48-2.49,2.1-3.86,3.66-5.19a21.06,21.06,0,0,0,1.91-1.76c2.08-2.28,2.25-3.88,2.25-3.89l.07-.79h15.38l-1.38,1.46c-1,1.09-2.07,2.72-1.89,3.32.05.16.3.25.5.3,2.29.55,2.52,2.31,2.72,3.87A7.69,7.69,0,0,0,154.54,68a16.06,16.06,0,0,0,5.37,4.57l1.19.56L157,76.75l2.72,9.5-.61.33c-9.35,5-8.59,10.88-8.58,10.94v3.14H153l3.41,3.87,4,2.84-.51,2.44,11.38,4.68v5.65h2.49l-4.2,9.79h-5.35V125.3l-4.43-4.44-4.44,4.44v4.63h-3.23V114.35l-14.58,6.93L135,117.91h-1v12h-5V108.59H126.7v-2.33h-7.44v2.33h-2.1Zm-4.43-1.73h2.7V106.86h2.11v-2.33h10.88v2.33h2.31v21.35h1.54v-12h3.54l2.24,2.94,15.79-7.5v12.74l5.94-5.93,6.16,6.16v3.62h2.48l2.72-6.34h-1.6v-6.22l-11.63-4.78.57-2.74-3.35-2.38-3-3.37h-3.38V97.7c-.09-.79-.46-7,8.87-12.3L155,76.18l3.05-2.68A18,18,0,0,1,153.15,69a9.21,9.21,0,0,1-1.64-4.67c-.21-1.64-.33-2.16-1.42-2.43a2.16,2.16,0,0,1-1.74-1.48c-.34-1.12.37-2.51,1.1-3.55H139.38A10.57,10.57,0,0,1,136.84,61a20.19,20.19,0,0,1-2.06,1.91c-1.78,1.52-3.19,2.71-3.19,5.47v1.68l-10.43-7.51-15.9-1.47-20.8,8.7c.22,2.09.3,8.23-5.65,11l-7.66,6.34v4.67l5,2.8v3.35l-3.87.89,1.63,4-.19,2.09-3.27.43-1.67,11-3.75-3.88-1.66,1.48-2.48.07v5.86h4.8v3L70.33,119l4.73,4.73,3.34-2.68,3.79,3.79v3.57h3.63v-25.2h24.43v16.09h2.48Z"/>
      <path class="cls-5" d="M78,135.19c3.44,1.29,1.61,1.61.1,6.56s2.58,11.93,5.92,14l-.32,5.92,8.39,10.42,3.65-1.39,19.14,7.63v6.35l57.76-19.47-14.85-13.12-.1-4.73,5.27-5h11.4l-5.49-13.11.09-.21h-3.91V125l-5.3-5.3-5.3,5.3v4.12H153V113l-15.18,7.22-2.4-3.16h-2.26v12h-3.26V107.73h-2.31V105.4h-9.16v2.33h-2.1v21.59h-4.44v-9.11h-2.48V104.12H86.69v25.2H81.34v-4.08l-3-3L75,124.93l-4.73-4.72-5.39,4.36v-3.89h-4.8v-7.57l-5.18.14s-1.07,8.38-8.92,11.93l.86,2.27,6.13-.33,1.29,6.78,7.31.53,2.48,4,6.34-.54s4.2-4,7.64-2.68"/>
      <path class="cls-4" d="M114.06,185.86v-7l-18.29-7.3-3.92,1.51-9-11.18.31-5.76c-3.5-2.5-7.41-9.54-5.85-14.67a26.69,26.69,0,0,1,1.31-3.42,4.89,4.89,0,0,0,.5-1.38s-.21-.26-1.4-.71a3.41,3.41,0,0,0-1.16-.2c-2.23,0-4.78,2-5.58,2.71l-.21.21-7.18.61-2.52-4.06-7.53-.55L52.27,128l-6,.32-1.37-3.61.73-.33c7.3-3.3,8.42-11.18,8.43-11.26l.09-.73,6.8-.18v7.59h4.8v2.94l4.59-3.71,4.73,4.72,3.34-2.68,3.79,3.8v3.56h3.63V103.26h24.43v16.08h2.47v9.11h2.71V106.87h2.11v-2.33h10.88v2.33h2.31v21.34h1.54v-12h3.55l2.23,2.94,15.79-7.5v12.74l5.94-5.94,6.16,6.16v3.62h4.36l-.46,1.07,5.84,14H163.34l-4.74,4.45.09,4,15.68,13.87ZM95.79,169.75l20,8v5.73L171,164.85l-14-12.38-.12-5.49,5.79-5.45H173.1l-4.85-11.59h-4v-4.63l-4.43-4.44-4.44,4.44v4.63h-3.23V114.36l-14.58,6.93L135,117.91h-1v12h-5V108.59h-2.3v-2.32h-7.44v2.32h-2.1v21.59H111v-9.11h-2.48V105h-21v25.2H80.48V125.6l-2.2-2.19-3.34,2.68-4.72-4.72-6.19,5v-4.83h-4.8V114l-3.59.09a17,17,0,0,1-8.56,11.53l.35.93,6.25-.33L55,133.09l7.09.52,2.43,3.9L70,137c.82-.71,3.63-3,6.53-3a5,5,0,0,1,1.77.31c1.27.48,2.07.9,2.39,1.66s0,1.62-.53,2.74A28,28,0,0,0,79,142c-1.36,4.47,2.38,11.06,5.54,13l.44.27-.33,6.1L92.4,171Z"/>
      <path class="cls-2" d="M116.07,201.52A83.92,83.92,0,1,1,200,117.6a84,84,0,0,1-83.92,83.92m0-166.11a82.19,82.19,0,1,0,82.19,82.19,82.28,82.28,0,0,0-82.19-82.19"/>
      <path class="cls-4" d="M113.26,156.55c-1.76-2.72-5.33-6.52-9.3-6.52a5.18,5.18,0,0,0-5.24,5.29c0,3.21,3,5.21,5.56,5.21,2.85,0,4.22-.89,6.62-.41a6.54,6.54,0,0,1,3.39,1.78.6.6,0,0,0,.75.12c.21-.14.35-.4.21-1a14.82,14.82,0,0,0-2-4.44"/>
      <path class="cls-4" d="M128.29,150c-4,0-7.54,3.81-9.3,6.53a14.82,14.82,0,0,0-2,4.44c-.14.63,0,.89.21,1a.6.6,0,0,0,.75-.12,6.54,6.54,0,0,1,3.39-1.78c2.4-.48,3.77.41,6.62.41,2.58,0,5.56-2,5.56-5.21a5.18,5.18,0,0,0-5.24-5.3"/>
      <path class="cls-4" d="M119.49,141.07a4.15,4.15,0,0,0-3.36,1.52,4.17,4.17,0,0,0-3.37-1.52,5.12,5.12,0,0,0-5.1,5.19,5.36,5.36,0,0,0,1,3.08,13.71,13.71,0,0,0,2.45,2.52,15.75,15.75,0,0,1,4.37,5.65.76.76,0,0,0,.62.47.75.75,0,0,0,.61-.47,15.64,15.64,0,0,1,4.37-5.65,13.71,13.71,0,0,0,2.45-2.52,5.36,5.36,0,0,0,1-3.08,5.11,5.11,0,0,0-5.09-5.19m2.81,7.33c-1.84,2.52-4.35,3.33-6.17,7.29-1.83-4-4.34-4.77-6.18-7.29a3.51,3.51,0,0,1-.73-2.11,3.69,3.69,0,0,1,3.66-3.7,3.61,3.61,0,0,1,3.25,2.27,3.59,3.59,0,0,1,3.24-2.27,3.69,3.69,0,0,1,3.66,3.7,3.51,3.51,0,0,1-.73,2.11"/>
      <path class="cls-2" d="M279.06,19.39c0,4.14-.17,5.44-.17,6.81s.17,1.79.81,1.79c1.38,0,3-5.84,13.23-5.84s16.79,7.38,16.79,21.66c0,13.06-6.65,22.22-17.44,22.22-12.74,0-12.66-7.62-14.2-7.62-.73,0-.65.57-1.3,3.89-.48,2.52-2.11,3.17-4.86,3.17-3.57,0-4.63-1.47-4.63-4.14,0-6.41-.08-22.47-.08-50.3,0-3.08,1.46-4.54,6.08-4.54,5.12,0,5.77,1.7,5.77,4.54Zm19,24.66c0-8.76-3.65-11.76-9.49-11.76s-10.06,3-10.06,12.33c0,8,3.89,12.73,9.57,12.73,6,0,10-4.7,10-13.3"/>
      <path class="cls-2" d="M325.66,68.55c0,2.11.16,4.94.16,6.57,0,2.59-1.05,3.89-5.76,3.89-3.4,0-5.92-.73-5.92-3.89,0-21.66.24-45.35.24-48.11s.57-3.89,4.79-3.89c3.16,0,3.9.73,4.79,4.38.4,1.62.73,2.11,1.3,2.11,1.86,0,3.24-7,13.38-7,10.46,0,17.84,7.71,17.84,22.31,0,13.87-8.68,21.66-18.33,21.66-8.51,0-10.46-4.54-11.76-4.54-.49,0-.73.32-.73,1ZM344.89,44c0-7.3-3.9-11.36-9.74-11.36-4.7,0-9.25,4.14-9.25,11.52,0,9.33,3.74,13.39,9.49,13.39s9.5-3.41,9.5-13.55"/>
      <path class="cls-2" d="M378.63,58.16c5.68,0,7.22-2,7.22-4,0-2.84-2.6-3.49-11.93-5-11.68-1.95-14.11-7.06-14.11-12.74,0-9.41,8.92-13.71,18.09-13.71,12.49,0,17.76,5.44,17.76,11.28,0,2.76-2,4.22-5.27,4.22a4.79,4.79,0,0,1-4.22-2.6c-1.86-3.16-4.46-4.38-8.35-4.38-4.63,0-7.22,1.46-7.22,4.38,0,3.08,1.37,4.55,10.54,6.17,13.47,2.35,15.9,6.16,15.9,11.92,0,7-6,12.9-19.55,12.9-13.38,0-18.17-7-18.17-11,0-2.92,1.22-4.3,4.06-4.3,5.19,0,4.38,7,15.25,7"/>
      <path class="cls-2" d="M415.51,43.89c-4.63,0-10.14-.08-11.44-.08-2.68,0-3.9-1.55-3.9-4.71,0-2.84,1.06-4.7,4.06-4.7,5.27,0,12,.08,13.71.08h4.38c2.76,0,3.89.73,3.89,4.62s-1.7,4.79-3.73,4.79Z"/>
      <path class="cls-2" d="M444.09,19.39c0,4.14-.16,5.44-.16,6.81s.16,1.79.81,1.79c1.38,0,3-5.84,13.22-5.84s16.8,7.38,16.8,21.66c0,13.06-6.65,22.22-17.44,22.22-12.74,0-12.66-7.62-14.2-7.62-.73,0-.65.57-1.3,3.89-.49,2.52-2.11,3.17-4.87,3.17-3.56,0-4.62-1.47-4.62-4.14,0-6.41-.08-22.47-.08-50.3,0-3.08,1.46-4.54,6.08-4.54,5.11,0,5.76,1.7,5.76,4.54Zm19,24.66c0-8.76-3.65-11.76-9.5-11.76s-10.05,3-10.05,12.33c0,8,3.89,12.73,9.57,12.73,6,0,10-4.7,10-13.3"/>
      <path class="cls-2" d="M490.7,68.55c0,2.11.16,4.94.16,6.57,0,2.59-1.05,3.89-5.76,3.89-3.41,0-5.92-.73-5.92-3.89,0-21.66.24-45.35.24-48.11s.57-3.89,4.79-3.89c3.16,0,3.89.73,4.79,4.38.4,1.62.73,2.11,1.29,2.11,1.87,0,3.25-7,13.39-7,10.46,0,17.84,7.71,17.84,22.31,0,13.87-8.67,21.66-18.33,21.66-8.52,0-10.46-4.54-11.76-4.54-.49,0-.73.32-.73,1ZM509.92,44c0-7.3-3.89-11.36-9.73-11.36-4.7,0-9.25,4.14-9.25,11.52,0,9.33,3.73,13.39,9.49,13.39s9.49-3.41,9.49-13.55"/>
      <path class="cls-2" d="M557.84,23.53c1.79,0,2.68.89,2.68,2.51a7,7,0,0,1-.49,2.43c-.81,2.44-1.46,5-5.1,15.58-3.49,10.14-4.14,11.76-5.12,14.68-1.94,5.6-4,7.22-8.35,7.22-5.44,0-6.82-1.7-8.76-7.38-1-2.84-1.22-3.41-5-14.93-1.54-4.62-3.25-9.24-4.14-12-1.14-3.33-1.38-4.38-1.38-5.76s.73-2.35,2.68-2.35h3.89c2.43,0,3.57,1,4.14,3.4.81,2.68,1.62,5.28,3.33,11.44,4.13,15,4,15.49,5.51,15.49,1.06,0,1.22-1.21,3.41-9.24,1.94-7.31,3.73-14.36,4.54-17.77.57-2.51,2-3.32,4.46-3.32Z"/>
      <path class="cls-1" d="M279.06,91c0,4.14-.17,5.44-.17,6.81s.17,1.79.81,1.79c1.38,0,3-5.84,13.23-5.84s16.79,7.38,16.79,21.66c0,13.06-6.65,22.23-17.44,22.23-12.74,0-12.66-7.63-14.2-7.63-.73,0-.65.57-1.3,3.89-.48,2.52-2.11,3.16-4.86,3.16-3.57,0-4.63-1.45-4.63-4.13,0-6.41-.08-22.47-.08-50.29,0-3.09,1.46-4.55,6.08-4.55,5.12,0,5.77,1.7,5.77,4.55Zm19,24.66c0-8.76-3.65-11.76-9.49-11.76s-10.06,3-10.06,12.33c0,8,3.89,12.73,9.57,12.73,6,0,10-4.7,10-13.3"/>
      <path class="cls-1" d="M325.74,133c0,2.92-1.13,4.3-5.76,4.3-4.3,0-5.84-1.3-5.84-4.3,0-21.5.33-31.48.33-34.23s1-3.57,4.46-3.57,4.21.89,4.7,4c.41,2.76.65,3.16,1.22,3.16,1.38,0,2.84-7.13,11.19-7.13,3.33,0,4.79,1.21,4.79,4.78,0,3-.57,5.68-4.71,5.68-6.81,0-10.38,4.06-10.38,12.25Z"/>
      <path class="cls-1" d="M377.66,137.1c-3.57,0-4.62-1.46-5.19-4-.41-1.78-.41-3.33-1.14-3.33-1.38,0-1.78,8.36-13.38,8.36-9.49,0-14.12-5.92-14.12-17.85,0-13-.08-7-.08-21.33,0-2.68,1.14-4,5.76-4,4.14,0,5.84.72,5.84,3.89,0,1.46-.16,14.6-.16,18.74,0,7.14,2.68,10.71,7.38,10.71,5.76,0,8.6-4.47,8.6-13.39,0-10.06-.16-13.55-.16-16.14s1.46-3.57,5.76-3.57c4.14,0,6,.73,6,3.73,0,4.87-.24,31.15-.24,33.91s-1.46,4.3-4.87,4.3"/>
      <path class="cls-1" d="M406.64,129.8c5.68,0,7.22-2,7.22-4.06,0-2.84-2.6-3.49-11.93-5-11.68-1.95-14.11-7.06-14.11-12.74,0-9.41,8.92-13.7,18.09-13.7,12.49,0,17.76,5.43,17.76,11.27,0,2.76-1.94,4.22-5.27,4.22a4.79,4.79,0,0,1-4.22-2.6c-1.86-3.16-4.46-4.38-8.35-4.38-4.63,0-7.22,1.46-7.22,4.38,0,3.08,1.37,4.55,10.54,6.17,13.47,2.35,15.9,6.16,15.9,11.92,0,7-6,12.9-19.55,12.9-13.38,0-18.17-7-18.17-11,0-2.92,1.22-4.3,4.06-4.3,5.19,0,4.38,7,15.25,7"/>
      <path class="cls-1" d="M447.39,129.8c5.68,0,7.22-2,7.22-4.06,0-2.84-2.59-3.49-11.92-5-11.68-1.95-14.11-7.06-14.11-12.74,0-9.41,8.92-13.7,18.08-13.7,12.5,0,17.77,5.43,17.77,11.27,0,2.76-1.95,4.22-5.27,4.22a4.79,4.79,0,0,1-4.22-2.6c-1.87-3.16-4.46-4.38-8.36-4.38-4.62,0-7.22,1.46-7.22,4.38,0,3.08,1.38,4.55,10.55,6.17,13.47,2.35,15.9,6.16,15.9,11.92,0,7-6,12.9-19.55,12.9-13.38,0-18.17-7-18.17-11,0-2.92,1.22-4.3,4.05-4.3,5.2,0,4.38,7,15.25,7"/>
      <path class="cls-1" d="M489.42,138.07c-12.9,0-20.93-8.76-20.93-22.63,0-12.41,7.54-21.25,21-21.25,12.65,0,19.87,6.24,19.87,17.35,0,4.87-1.54,5.85-4.7,5.85l-23.2-.09c-1.79,0-2,.81-2,2.11,0,5.52,4.22,9.65,10.38,9.65,10.14,0,8.28-6.57,14.2-6.57a4,4,0,0,1,4.06,4.22c0,4.06-5,11.36-18.74,11.36m8.11-26.53c1.54,0,2-.56,2-1.86,0-3-2.84-7.06-9.74-7.06-7.13,0-10,4.38-10,7.22,0,1.22.33,1.7,1.79,1.7Z"/>
      <path class="cls-1" d="M514.08,82.5c0-2.84,1.54-4.38,5.76-4.38,3.89,0,5.52,1,5.52,4.54,0,4.79-.33,40.64-.33,44.62,0,1.54.33,2.11,1.38,2.11.57,0,1-.16,1.86-.16,2.11,0,3.17,1.3,3.17,3.73,0,3.41-2.35,5.19-7.3,5.19-6.82,0-10.06-4.14-10.06-10.3Z"/>
      <path class="cls-1" d="M552.17,129.8c5.67,0,7.22-2,7.22-4.06,0-2.84-2.6-3.49-11.93-5-11.68-1.95-14.11-7.06-14.11-12.74,0-9.41,8.92-13.7,18.09-13.7,12.49,0,17.76,5.43,17.76,11.27,0,2.76-1.94,4.22-5.27,4.22a4.79,4.79,0,0,1-4.22-2.6c-1.87-3.16-4.46-4.38-8.36-4.38-4.62,0-7.21,1.46-7.21,4.38,0,3.08,1.37,4.55,10.54,6.17,13.47,2.35,15.9,6.16,15.9,11.92,0,7-6,12.9-19.55,12.9-13.38,0-18.17-7-18.17-11,0-2.92,1.22-4.3,4.06-4.3,5.19,0,4.38,7,15.25,7"/>
      <path class="cls-1" d="M289.24,178.23c0,4.3-2.89,8-12.66,8-8,0-10.1-1.3-10.1-4,0-2,.08-11.6.08-13.46s-.08-5.2-.08-7.22c0-3.13,2.72-3.77,9.78-3.77,9.41,0,12.61,3.85,12.61,8.35,0,5.68-4.18,5.88-4.18,6.57s4.55.69,4.55,5.52m-18.86-7.67c0,.77.32,1,.93,1H281c1.95,0,4-1.5,4-5.06,0-3.41-2.8-5.52-8.72-5.52-4.83,0-6,.61-6,1.91Zm14.8,7.95c0-2.55-1.54-4.46-7-4.46h-5.88c-1.22,0-2,.24-2,1.5v5.6c0,1.17,1.3,2.07,6.37,2.07,6.41,0,8.52-2.15,8.52-4.71"/>
      <path class="cls-1" d="M303.43,168.33c-4,0-6.49,2.39-6.49,6.37v9.94c0,1.05-.56,1.13-1.86,1.13-1.71,0-1.71-.28-1.71-1.66s.08-15.33.08-18c0-.89.25-1.3,1.42-1.3.69,0,1.47.08,1.51.81l.16,2.56c0,.89.08,1.09.24,1.09.45,0,1.79-4.46,6.17-4.46,1.54,0,2.23.73,2.23,1.83s-.57,1.7-1.75,1.7"/>
      <path class="cls-1" d="M308.22,178.31c0-6.49,0-5.23,0-12.45,0-.69.12-1.18,1.74-1.18s1.79.49,1.79,1.54c0,.69,0,9.33,0,11.36,0,4,1.58,5.56,4.38,5.56,3,0,5.92-2.28,5.92-7.55,0-8.92,0-8.19,0-9.65,0-.86.16-1.18,1.78-1.18s1.79.45,1.79,1.18c0,10.79-.12,16.83-.12,18.21s-.28,1.62-1.38,1.62-1.3-.24-1.5-1.62c-.16-1.22-.28-1.26-.57-1.26-.81,0-1.3,3.41-6.77,3.41-3.57,0-7.1-1.54-7.1-8"/>
      <path class="cls-1" d="M347.64,184c.53.73.7,1,.7,1.29s-.25.65-1.06.65H345.9c-1,0-1.38-.16-2.84-2.43s-2.43-3.81-3-4.83-.85-1.25-1.22-1.25-.65.32-1.37,1.41c-.58.9-2.72,4.3-3.9,6-.45.65-.77,1-1.54,1h-2.15a.59.59,0,0,1-.65-.65c0-.61.53-1.13,1.38-2.23s4.3-5.8,4.87-6.61c.69-1,.81-1.17.81-1.54s-.41-.77-1.91-2.8c-1.7-2.31-3.45-4.5-4.14-5.47-.4-.61-.52-.82-.52-1.26s.28-.61.73-.61h2c.86,0,1.14.2,1.91,1.38,1.46,2.19,2.51,3.85,3.37,5.19.4.61.65,1,1,1s.53-.44,1.3-1.58l3.12-4.58c.73-1,1.18-1.3,2.15-1.3h1.83a.6.6,0,0,1,.65.65c0,.37-.09.53-1,1.62l-4.94,6.21c-.49.65-.74.93-.74,1.3s.21.61.78,1.34c.85,1.13,1.49,2,2.71,3.69,1.63,2.27,2.48,3.56,3.08,4.38"/>
      <path class="cls-1" d="M350.85,175.19a17.5,17.5,0,0,1,.24-2.85c.73-4.5,3.94-8,9.78-8,6,0,9,4.13,9,8.68,0,1.78-.65,2.51-2.11,2.51l-12.45,0c-.85,0-.89.36-.89,1,0,3.86,2.39,6.73,6.33,6.73,5.23,0,5-3.69,7-3.69.9,0,1.38.49,1.38,1.46,0,1.63-2.51,5.28-8.51,5.28-6.7,0-9.82-4.46-9.82-11.07m3.85-2.93c0,.9.29,1,1.18,1h9.69c.65,0,.85-.57.85-1.14,0-2.07-1.66-4.66-5.75-4.66s-6,3-6,4.78"/>
      <path class="cls-1" d="M377.86,157.91v22.87c0,1.38.09,2.19,1.22,2.19.61,0,.81-.28,1.5-.28s1.06.57,1.06,1.42-1.18,1.66-3.13,1.66c-3.32,0-4.14-1.74-4.14-4.62,0-.81-.08-21.46-.08-23.16,0-1.1.41-1.71,1.75-1.71s1.82.57,1.82,1.63"/>
      <path class="cls-1" d="M388,157.91v22.87c0,1.38.08,2.19,1.22,2.19.61,0,.81-.28,1.5-.28s1.06.57,1.06,1.42-1.18,1.66-3.13,1.66c-3.32,0-4.13-1.74-4.13-4.62,0-.81-.08-21.46-.08-23.16,0-1.1.4-1.71,1.74-1.71s1.82.57,1.82,1.63"/>
      <path class="cls-1" d="M393.36,175.19a17.5,17.5,0,0,1,.24-2.85c.73-4.5,3.94-8,9.78-8,6,0,9,4.13,9,8.68,0,1.78-.65,2.51-2.11,2.51l-12.45,0c-.85,0-.89.36-.89,1,0,3.86,2.39,6.73,6.32,6.73,5.24,0,5-3.69,7-3.69a1.27,1.27,0,0,1,1.38,1.46c0,1.63-2.51,5.28-8.52,5.28-6.69,0-9.81-4.46-9.81-11.07m3.85-2.93c0,.9.29,1,1.18,1h9.69c.65,0,.85-.57.85-1.14,0-2.07-1.66-4.66-5.76-4.66s-6,3-6,4.78"/>
      <path class="cls-1" d="M429.54,180.54c0-1.54-.89-2.72-6.65-3.61-5.36-.81-7.1-3.41-7.1-6,0-4,3.24-6.57,8.8-6.57,6,0,8.4,3,8.4,5.31,0,1.09-.69,1.46-1.63,1.46a2.16,2.16,0,0,1-1.9-1.34c-1-1.5-2.56-2.35-5.4-2.35s-4.5,1.46-4.5,3.2.89,2.84,5.52,3.65c6.12,1.06,8.11,2.52,8.11,5.76,0,3.09-2.48,6.21-8.68,6.21s-9.41-3.49-9.41-6.25a1.27,1.27,0,0,1,1.34-1.3c2.51,0,1.7,4.67,8.23,4.67,3.37,0,4.87-1.22,4.87-2.84"/>
      <path class="cls-1" d="M457,176c-3.73,0-4.26-.08-5.48-.08-.57,0-.65.29-.65.86s.08,6.53.08,7.74c0,1-.56,1.26-1.86,1.26-1.58,0-1.91-.28-1.91-1.26,0-.52,0-2.27,0-5,0-2.31,0-5.31.12-8.88,0-1,0-2.31,0-3.61,0-2.63,0-5.31,0-6.16,0-2.32,1.26-3,8.56-3,8.16,0,12.66,3.56,12.66,9.08S465,176,457,176m7.75-8.88c0-3.81-3.29-6.16-8.68-6.16-4.83,0-5.12.53-5.12,2,0,.6-.08,8.72-.08,9.12,0,1,1.43,1.22,6.21,1.22,5.92,0,7.67-2.76,7.67-6.21"/>
      <path class="cls-1" d="M482.76,168.33c-4,0-6.49,2.39-6.49,6.37v9.94c0,1.05-.57,1.13-1.87,1.13-1.7,0-1.7-.28-1.7-1.66s.08-15.33.08-18c0-.89.24-1.3,1.42-1.3.69,0,1.46.08,1.5.81l.16,2.56c0,.89.08,1.09.25,1.09.44,0,1.78-4.46,6.16-4.46,1.54,0,2.23.73,2.23,1.83s-.57,1.7-1.74,1.7"/>
      <path class="cls-1" d="M485.68,175.18a17.26,17.26,0,0,1,.24-2.83c.73-4.51,3.93-8,9.78-8,6,0,9,4.14,9,8.68,0,1.79-.65,2.52-2.11,2.52l-12.45,0c-.85,0-.89.37-.89,1,0,3.86,2.39,6.73,6.32,6.73,5.24,0,5-3.69,7-3.69.89,0,1.38.49,1.38,1.47,0,1.62-2.51,5.27-8.52,5.27-6.69,0-9.81-4.46-9.81-11.08m3.85-2.92c0,.9.28,1,1.18,1h9.69c.65,0,.85-.57.85-1.14,0-2.06-1.66-4.66-5.76-4.66s-6,3-6,4.78m8.4-12.37c-1.22,2-1.63,2.4-2.4,2.4a1.24,1.24,0,0,1-1.33-1.14c0-.69.12-1.05.89-2.72,1-2.19,1.26-2.8,2.31-2.8a1.52,1.52,0,0,1,1.66,1.43c0,.68-.12,1.17-1.13,2.83"/>
      <path class="cls-1" d="M524.49,164.8c.65,0,.9.33.9.69a6.58,6.58,0,0,1-.41,1.91l-5.47,16.14c-.69,2-1.47,2.47-3.13,2.47s-2.59-.28-3.49-2.83c-.52-1.51-1.25-3.17-3-8.24-2.19-6.37-3.08-8.68-3.08-9.33,0-.48.36-.81,1-.81h1.46c.73,0,1.06,0,1.38,1,.45,1.33,3.77,12.41,4.79,15.45.16.48.36.77.89.77s.73-.37.85-.73c1-3.45,3.9-13.63,4.34-15.09.33-1.09.53-1.38,1.34-1.38Z"/>
      <path class="cls-1" d="M527.74,175.19a17.5,17.5,0,0,1,.24-2.85c.73-4.5,3.94-8,9.78-8,6,0,9,4.13,9,8.68,0,1.78-.64,2.51-2.11,2.51l-12.45,0c-.85,0-.89.36-.89,1,0,3.86,2.39,6.73,6.33,6.73,5.23,0,5-3.69,7-3.69a1.27,1.27,0,0,1,1.38,1.46c0,1.63-2.51,5.28-8.51,5.28-6.7,0-9.82-4.46-9.82-11.07m3.85-2.93c0,.9.29,1,1.18,1h9.69c.65,0,.85-.57.85-1.14,0-2.07-1.66-4.66-5.75-4.66s-6,3-6,4.78"/>
      <path class="cls-1" d="M568.34,172.3c0,6.41,0,5.36,0,12.54,0,.69-.4.93-2,.93-1.34,0-1.5-.24-1.5-1.26,0-.77,0-9.69,0-11.8,0-3.57-1.46-5.11-4.09-5.11-3.13,0-6.29,2-6.29,6.77v10.35c0,.77-.08,1.09-1.87,1.09-1.34,0-1.58-.32-1.58-1.05,0-10.71.08-17.2.08-18.58,0-1.18.41-1.38,1.46-1.38s1.46.16,1.58,1.26c.21,1.66.21,1.9.53,1.9.65,0,1.54-3.64,6.61-3.64,3.57,0,7.1,1.54,7.1,8"/>
      <path class="cls-1" d="M575.8,159.41c0-.89.33-1.55,1.71-1.55s1.58.66,1.58,1.43V164c0,.81.12.81.61.81l4.58,0c.57,0,1.22.29,1.22,1.46s-.61,1.58-1.22,1.58h-4.42c-.57,0-.69.17-.69.65v11.77a2.12,2.12,0,0,0,2.43,2.43c.9,0,1.42-.57,2.36-.57s1.3.77,1.3,1.58c0,1.1-1.22,2.23-3.94,2.23-4.3,0-5.68-2.39-5.68-6.24,0-2.23.12-7.67.12-11.12,0-.52-.2-.73-.65-.73h-2.06c-.77,0-1.22-.32-1.22-1.09s.28-1.1,1.26-1.3c2.23-.44,2.71-.44,2.71-1Z"/>
      <path class="cls-1" d="M594,158.72a2.56,2.56,0,1,1-2.52-2.56,2.36,2.36,0,0,1,2.52,2.56m-.86,7.46v18.58c0,.73-.2,1.05-1.78,1.05s-1.74-.28-1.74-1.18.08-16.3.08-18.53c0-1,.36-1.3,1.7-1.3s1.74.21,1.74,1.38"/>
      <path class="cls-1" d="M618,175.15c0,5.8-3.25,11.11-10.3,11.11-6.7,0-10.14-4.71-10.14-10.87s3.24-11.07,10.06-11.07c7.82,0,10.38,5.55,10.38,10.83m-3.77.44c0-5.27-2.4-8-6.45-8-3.69,0-6.57,2.19-6.57,8,0,4.22,2.23,7.59,6.36,7.59s6.66-3.33,6.66-7.59"/>
      <path class="cls-1" d="M639.45,172.3c0,6.41,0,5.36,0,12.54,0,.69-.41.93-2,.93-1.34,0-1.5-.24-1.5-1.26,0-.77,0-9.69,0-11.8,0-3.57-1.46-5.11-4.1-5.11-3.12,0-6.29,2-6.29,6.77v10.35c0,.77-.08,1.09-1.86,1.09-1.34,0-1.58-.32-1.58-1.05,0-10.71.08-17.2.08-18.58,0-1.18.4-1.38,1.46-1.38s1.46.16,1.58,1.26c.2,1.66.2,1.9.52,1.9.66,0,1.55-3.64,6.62-3.64,3.57,0,7.1,1.54,7.1,8"/>
      <path class="cls-1" d="M670.43,184c-.64,0-2.19,2.19-7.46,2.19-7.14,0-10.18-3.29-10.18-7.79a6.68,6.68,0,0,1,5-6.65,13.8,13.8,0,0,1-2-6.45c0-4.34,2.8-7.55,8.07-7.55,4.51,0,7.55,2.64,7.55,6.49a1.54,1.54,0,0,1-1.74,1.67c-1.26,0-1.51-.73-1.71-1.5-.65-2.52-1.66-3.37-4.5-3.37-2.35,0-4.06,1.38-4.06,4.38,0,6,9.29,14.28,10.75,14.28.49,0,1.58-2.31,1.58-6.45,0-.94.25-1.66,1.58-1.66a1.51,1.51,0,0,1,1.67,1.7c0,5.8-1.75,7.14-1.75,7.87,0,.28.25.69,3.17,1.3,1.62.32,2.35.77,2.35,1.7,0,1.13-.49,1.66-1.74,1.66-3.33,0-5.81-1.82-6.58-1.82m-11-9.62a3.69,3.69,0,0,0-2.88,3.9c0,2.51,1.71,4.82,6.45,4.82,2.64,0,4.42-.68,4.42-1s-2.55-1.5-5-4.18-2.55-3.49-3-3.49"/>
      <path class="cls-1" d="M712.78,166.75a1.36,1.36,0,0,1-1.54,1.5,1.73,1.73,0,0,1-1.82-1.46c-.82-3-2.76-5.72-7.59-5.72-4.34,0-6.61,2.35-6.61,5,0,3.16,1.7,4.54,7.3,5.56,8.11,1.46,10.46,3.48,10.46,7.29s-2.59,7.67-10.91,7.67c-6.77,0-11.43-4.3-11.43-7.71a1.4,1.4,0,0,1,1.5-1.41c1.58,0,1.5,1.41,3.2,3.12a8.37,8.37,0,0,0,7.06,2.88c4.5,0,6.73-1.62,6.73-4.18,0-2.8-1.7-3.32-8.23-4.7-7-1.46-9.5-4-9.5-8.4s3.9-8.32,10.51-8.32c8.19,0,10.87,5.08,10.87,8.93"/>
      <path class="cls-1" d="M716.64,175.18a17.26,17.26,0,0,1,.24-2.83c.73-4.51,3.93-8,9.78-8s9,4.14,9,8.68c0,1.79-.65,2.52-2.11,2.52l-12.45,0c-.85,0-.89.37-.89,1,0,3.86,2.39,6.73,6.32,6.73,5.23,0,5-3.69,7-3.69.89,0,1.38.49,1.38,1.47,0,1.62-2.52,5.27-8.52,5.27-6.69,0-9.81-4.46-9.81-11.08m3.85-2.92c0,.9.28,1,1.17,1h9.7c.65,0,.85-.57.85-1.14,0-2.06-1.66-4.66-5.76-4.66s-6,3-6,4.78m8.4-12.37c-1.22,2-1.63,2.4-2.4,2.4a1.24,1.24,0,0,1-1.34-1.14c0-.69.12-1.05.9-2.72,1-2.19,1.25-2.8,2.31-2.8a1.52,1.52,0,0,1,1.66,1.43c0,.68-.12,1.17-1.13,2.83"/>
      <path class="cls-1" d="M755.7,179.52c.89,0,1.37.49,1.37,1.47,0,1.62-2.51,5.27-8.51,5.27-6.74,0-10.26-4.22-10.26-10.51,0-6.77,3.32-11.44,10.13-11.44,6.17,0,8.69,4.14,8.69,7.51a1.49,1.49,0,0,1-1.71,1.66,1.46,1.46,0,0,1-1.62-1.21c-.28-1.1-1.3-4.87-5.44-4.87-3.93,0-6.36,3-6.36,8.19,0,4.18,2.15,7.63,6.44,7.63,5.56,0,5.28-3.7,7.27-3.7"/>
      <path class="cls-1" d="M761.5,178.31c0-6.49,0-5.23,0-12.45,0-.69.12-1.18,1.74-1.18s1.79.49,1.79,1.54c0,.69,0,9.33,0,11.36,0,4,1.58,5.56,4.38,5.56,3,0,5.92-2.28,5.92-7.55,0-8.92,0-8.19,0-9.65,0-.86.16-1.18,1.78-1.18s1.79.45,1.79,1.18c0,10.79-.12,16.83-.12,18.21s-.29,1.62-1.38,1.62-1.3-.24-1.5-1.62c-.17-1.22-.29-1.26-.57-1.26-.81,0-1.3,3.41-6.78,3.41-3.56,0-7.09-1.54-7.09-8"/>
      <path class="cls-1" d="M794,168.33c-4,0-6.49,2.39-6.49,6.37v9.94c0,1.05-.57,1.13-1.87,1.13-1.7,0-1.7-.28-1.7-1.66s.08-15.33.08-18c0-.89.24-1.3,1.42-1.3.69,0,1.46.08,1.5.81l.16,2.56c0,.89.08,1.09.25,1.09.44,0,1.78-4.46,6.16-4.46,1.54,0,2.23.73,2.23,1.83s-.57,1.7-1.74,1.7"/>
      <path class="cls-1" d="M803.44,158.72a2.56,2.56,0,1,1-2.52-2.56,2.36,2.36,0,0,1,2.52,2.56m-.86,7.46v18.58c0,.73-.2,1.05-1.78,1.05s-1.74-.28-1.74-1.18.08-16.3.08-18.53c0-1,.36-1.3,1.7-1.3s1.74.21,1.74,1.38"/>
      <path class="cls-1" d="M810.41,159.41c0-.89.33-1.55,1.71-1.55s1.58.66,1.58,1.43V164c0,.81.12.81.61.81l4.58,0c.57,0,1.22.29,1.22,1.46s-.61,1.58-1.22,1.58h-4.42c-.57,0-.69.17-.69.65v11.77a2.12,2.12,0,0,0,2.43,2.43c.9,0,1.42-.57,2.36-.57s1.3.77,1.3,1.58c0,1.1-1.22,2.23-3.94,2.23-4.3,0-5.68-2.39-5.68-6.24,0-2.23.12-7.67.12-11.12,0-.52-.2-.73-.64-.73h-2.07c-.77,0-1.22-.32-1.22-1.09s.28-1.1,1.26-1.3c2.23-.44,2.71-.44,2.71-1Z"/>
      <path class="cls-1" d="M822.83,175.18a17.26,17.26,0,0,1,.24-2.83c.73-4.51,3.93-8,9.78-8s9,4.14,9,8.68c0,1.79-.65,2.52-2.11,2.52l-12.45,0c-.85,0-.89.37-.89,1,0,3.86,2.39,6.73,6.32,6.73,5.23,0,5-3.69,7-3.69.89,0,1.38.49,1.38,1.47,0,1.62-2.52,5.27-8.52,5.27-6.69,0-9.81-4.46-9.81-11.08m3.85-2.92c0,.9.28,1,1.17,1h9.7c.65,0,.85-.57.85-1.14,0-2.06-1.66-4.66-5.76-4.66s-6,3-6,4.78m8.4-12.37c-1.22,2-1.63,2.4-2.4,2.4a1.24,1.24,0,0,1-1.34-1.14c0-.69.12-1.05.9-2.72,1-2.19,1.25-2.8,2.31-2.8a1.52,1.52,0,0,1,1.66,1.43c0,.68-.12,1.17-1.13,2.83"/>
      <path class="cls-1" d="M289.24,220.52c0,4.3-2.89,8-12.66,8-8,0-10.1-1.3-10.1-4,0-2,.08-11.6.08-13.47s-.08-5.19-.08-7.21c0-3.13,2.72-3.78,9.78-3.78,9.41,0,12.61,3.86,12.61,8.36,0,5.68-4.18,5.88-4.18,6.57s4.55.69,4.55,5.52m-18.86-7.67c0,.77.32,1,.93,1H281c1.95,0,4-1.5,4-5.07,0-3.4-2.8-5.51-8.72-5.51-4.83,0-6,.61-6,1.9Zm14.8,8c0-2.55-1.54-4.46-7-4.46h-5.88c-1.22,0-2,.24-2,1.5v5.6c0,1.17,1.3,2.06,6.37,2.06,6.41,0,8.52-2.15,8.52-4.7"/>
      <path class="cls-1" d="M303.43,210.62c-4,0-6.49,2.39-6.49,6.37v9.93c0,1.06-.56,1.14-1.86,1.14-1.71,0-1.71-.28-1.71-1.66s.08-15.33.08-18c0-.89.25-1.3,1.42-1.3.69,0,1.47.08,1.51.81l.16,2.56c0,.89.08,1.09.24,1.09.45,0,1.79-4.46,6.17-4.46,1.54,0,2.23.73,2.23,1.83s-.57,1.7-1.75,1.7"/>
      <path class="cls-1" d="M308.22,220.6c0-6.49,0-5.23,0-12.46,0-.68.12-1.17,1.74-1.17s1.79.49,1.79,1.54c0,.69,0,9.33,0,11.36,0,4,1.58,5.55,4.38,5.55,3,0,5.92-2.27,5.92-7.54,0-8.92,0-8.19,0-9.65,0-.86.16-1.18,1.78-1.18s1.79.45,1.79,1.18c0,10.79-.12,16.83-.12,18.21s-.28,1.62-1.38,1.62-1.3-.24-1.5-1.62c-.16-1.22-.28-1.26-.57-1.26-.81,0-1.3,3.41-6.77,3.41-3.57,0-7.1-1.54-7.1-8"/>
      <path class="cls-1" d="M343.87,222.83c0-1.54-.89-2.72-6.65-3.61-5.35-.81-7.1-3.41-7.1-6,0-4,3.25-6.57,8.81-6.57,6,0,8.39,3,8.39,5.31,0,1.09-.69,1.46-1.62,1.46a2.17,2.17,0,0,1-1.91-1.34c-1-1.5-2.55-2.35-5.39-2.35s-4.51,1.46-4.51,3.2.9,2.84,5.52,3.65c6.13,1.06,8.11,2.52,8.11,5.76,0,3.08-2.47,6.21-8.68,6.21s-9.41-3.49-9.41-6.25a1.27,1.27,0,0,1,1.34-1.3c2.52,0,1.71,4.67,8.24,4.67,3.36,0,4.86-1.22,4.86-2.84"/>
      <path class="cls-1" d="M364.44,222.83c0-1.54-.89-2.72-6.65-3.61-5.36-.81-7.1-3.41-7.1-6,0-4,3.24-6.57,8.8-6.57,6,0,8.4,3,8.4,5.31,0,1.09-.69,1.46-1.63,1.46a2.15,2.15,0,0,1-1.9-1.34c-1-1.5-2.56-2.35-5.4-2.35s-4.5,1.46-4.5,3.2.89,2.84,5.52,3.65c6.12,1.06,8.11,2.52,8.11,5.76,0,3.08-2.48,6.21-8.68,6.21S350,225.06,350,222.3a1.27,1.27,0,0,1,1.34-1.3c2.51,0,1.7,4.67,8.23,4.67,3.37,0,4.87-1.22,4.87-2.84"/>
      <path class="cls-1" d="M371,217.47a17.26,17.26,0,0,1,.24-2.83c.73-4.51,3.94-8,9.78-8,6,0,9,4.14,9,8.68,0,1.79-.65,2.52-2.11,2.52l-12.45,0c-.85,0-.89.36-.89,1,0,3.86,2.39,6.73,6.33,6.73,5.23,0,5-3.69,7-3.69a1.27,1.27,0,0,1,1.38,1.46c0,1.63-2.51,5.28-8.52,5.28-6.69,0-9.81-4.47-9.81-11.08m3.85-2.92c0,.9.29,1,1.18,1h9.69c.65,0,.85-.57.85-1.14,0-2.07-1.66-4.66-5.76-4.66s-6,3-6,4.78"/>
      <path class="cls-1" d="M398,200.19v22.88c0,1.38.08,2.19,1.22,2.19.61,0,.81-.28,1.5-.28s1.06.56,1.06,1.42-1.18,1.66-3.13,1.66c-3.32,0-4.14-1.74-4.14-4.62,0-.81-.08-21.46-.08-23.16,0-1.1.41-1.71,1.75-1.71s1.82.57,1.82,1.62"/>
      <path class="cls-1" d="M424.23,218.28c-3.74,0-4.26-.08-5.48-.08-.57,0-.65.29-.65.86s.08,6.53.08,7.74c0,1-.57,1.26-1.86,1.26-1.59,0-1.91-.28-1.91-1.26,0-.52,0-2.27,0-5,0-2.31,0-5.31.12-8.88,0-1,0-2.31,0-3.61,0-2.63,0-5.31,0-6.16,0-2.32,1.26-3.05,8.56-3.05,8.15,0,12.65,3.57,12.65,9.09s-3.52,9.16-11.47,9.12M432,209.4c0-3.81-3.28-6.16-8.68-6.16-4.83,0-5.11.52-5.11,2,0,.61-.08,8.73-.08,9.13,0,1,1.42,1.22,6.21,1.22,5.92,0,7.66-2.76,7.66-6.21"/>
      <path class="cls-1" d="M450,210.62c-4,0-6.49,2.39-6.49,6.37v9.93c0,1.06-.57,1.14-1.86,1.14-1.71,0-1.71-.28-1.71-1.66s.09-15.33.09-18c0-.89.24-1.3,1.41-1.3.69,0,1.46.08,1.5.81l.17,2.56c0,.89.08,1.09.24,1.09.45,0,1.78-4.46,6.16-4.46,1.55,0,2.23.73,2.23,1.83s-.56,1.7-1.74,1.7"/>
      <path class="cls-1" d="M452.9,217.47a16.25,16.25,0,0,1,.25-2.83c.73-4.51,3.93-8,9.77-8,6,0,9.05,4.14,9.05,8.68,0,1.79-.65,2.52-2.11,2.52l-12.45,0c-.86,0-.9.36-.9,1,0,3.86,2.4,6.73,6.33,6.73,5.23,0,5-3.69,7-3.69a1.27,1.27,0,0,1,1.38,1.46c0,1.63-2.52,5.28-8.52,5.28-6.69,0-9.82-4.47-9.82-11.08m3.86-2.92c0,.9.28,1,1.17,1h9.7c.65,0,.85-.57.85-1.14,0-2.07-1.66-4.66-5.76-4.66s-6,3-6,4.78"/>
      <path class="cls-1" d="M492,207.09c.65,0,.9.33.9.69a6.58,6.58,0,0,1-.41,1.91L487,225.83c-.7,2-1.47,2.47-3.13,2.47s-2.59-.28-3.49-2.84c-.52-1.5-1.25-3.16-3-8.23-2.19-6.37-3.08-8.68-3.08-9.33,0-.48.37-.81,1-.81h1.46c.73,0,1.06,0,1.38,1,.45,1.34,3.77,12.42,4.79,15.46.16.48.36.77.89.77s.73-.37.85-.73c1-3.45,3.9-13.63,4.34-15.09.33-1.1.53-1.38,1.34-1.38Z"/>
      <path class="cls-1" d="M495.25,217.47a17.26,17.26,0,0,1,.24-2.83c.73-4.51,3.94-8,9.78-8,6,0,9,4.14,9,8.68,0,1.79-.65,2.52-2.11,2.52l-12.45,0c-.85,0-.89.36-.89,1,0,3.86,2.39,6.73,6.33,6.73,5.23,0,5-3.69,7-3.69.9,0,1.38.49,1.38,1.46,0,1.63-2.51,5.28-8.51,5.28-6.7,0-9.82-4.47-9.82-11.08m3.85-2.92c0,.9.29,1,1.18,1H510c.65,0,.85-.57.85-1.14,0-2.07-1.66-4.66-5.75-4.66s-6,3-6,4.78"/>
      <path class="cls-1" d="M535.85,214.6c0,6.4,0,5.35,0,12.53,0,.69-.4.93-2,.93-1.33,0-1.5-.24-1.5-1.26,0-.77,0-9.69,0-11.8,0-3.57-1.46-5.11-4.09-5.11-3.13,0-6.29,2-6.29,6.77V227c0,.78-.08,1.1-1.87,1.1-1.34,0-1.58-.32-1.58-1,0-10.71.08-17.2.08-18.58,0-1.18.41-1.38,1.46-1.38s1.46.16,1.58,1.26c.21,1.66.21,1.91.53,1.91.65,0,1.54-3.66,6.61-3.66,3.57,0,7.1,1.55,7.1,8"/>
      <path class="cls-1" d="M543.31,201.7c0-.9.33-1.55,1.71-1.55s1.58.65,1.58,1.42v4.67c0,.81.12.81.61.81l4.58,0c.57,0,1.22.28,1.22,1.46s-.61,1.58-1.22,1.58h-4.42c-.57,0-.69.16-.69.65v11.76a2.12,2.12,0,0,0,2.43,2.44c.9,0,1.43-.57,2.36-.57s1.3.77,1.3,1.58c0,1.1-1.22,2.23-3.94,2.23-4.3,0-5.68-2.39-5.68-6.24,0-2.23.12-7.67.12-11.12,0-.53-.2-.73-.64-.73h-2.07c-.77,0-1.22-.32-1.22-1.09s.28-1.1,1.26-1.3c2.23-.45,2.71-.45,2.71-1.05Z"/>
      <path class="cls-1" d="M561.49,201a2.56,2.56,0,1,1-2.52-2.56,2.36,2.36,0,0,1,2.52,2.56m-.86,7.46v18.58c0,.73-.2,1-1.78,1s-1.74-.28-1.74-1.18.08-16.3.08-18.53c0-1,.36-1.3,1.7-1.3s1.74.2,1.74,1.38"/>
      <path class="cls-1" d="M565.22,217.47a17.26,17.26,0,0,1,.24-2.83c.73-4.51,3.94-8,9.78-8,6,0,9,4.14,9,8.68,0,1.79-.65,2.52-2.11,2.52l-12.45,0c-.85,0-.89.36-.89,1,0,3.86,2.39,6.73,6.32,6.73,5.24,0,5-3.69,7-3.69a1.27,1.27,0,0,1,1.38,1.46c0,1.63-2.51,5.28-8.52,5.28-6.69,0-9.81-4.47-9.81-11.08m3.85-2.92c0,.9.29,1,1.18,1h9.69c.65,0,.85-.57.85-1.14,0-2.07-1.66-4.66-5.76-4.66s-6,3-6,4.78"/>
      <path class="cls-1" d="M614.13,226.32c-.64,0-2.19,2.19-7.46,2.19-7.14,0-10.18-3.29-10.18-7.79a6.68,6.68,0,0,1,5-6.65,13.8,13.8,0,0,1-2-6.45c0-4.34,2.8-7.55,8.07-7.55,4.51,0,7.55,2.64,7.55,6.49a1.54,1.54,0,0,1-1.75,1.67c-1.25,0-1.5-.73-1.7-1.51-.65-2.51-1.66-3.36-4.5-3.36-2.35,0-4.06,1.38-4.06,4.38,0,6,9.29,14.28,10.75,14.28.49,0,1.58-2.31,1.58-6.45,0-.93.25-1.67,1.59-1.67a1.52,1.52,0,0,1,1.66,1.71c0,5.8-1.75,7.14-1.75,7.87,0,.28.25.69,3.17,1.29,1.62.33,2.35.77,2.35,1.71,0,1.13-.49,1.66-1.75,1.66-3.32,0-5.79-1.82-6.57-1.82m-11-9.62a3.69,3.69,0,0,0-2.88,3.9c0,2.51,1.71,4.82,6.45,4.82,2.64,0,4.42-.69,4.42-1s-2.55-1.5-5-4.18-2.55-3.49-3-3.49"/>
      <path class="cls-1" d="M636.16,200.52c.89,0,1.18.2,1.42,1,2.11,6.57,5.6,17.65,6.69,21.21.2.66.29,1.14,1,1.14s.81-.52,1-1.26c1.1-3.32,1.54-4.58,3.61-11.23,1.58-5.07,2.31-8.11,2.72-9.65a1.36,1.36,0,0,1,1.5-1.18h1.54a1,1,0,0,1,1.14,1.09c0,1.3-.69,2.4-2.44,7.71s-2.67,8.92-5.43,16.83a2.58,2.58,0,0,1-2.44,1.91c-.77,0-1.66,0-2.67,0s-1.79-.36-2.31-2.07c-.74-2.31-4.71-14.08-7.15-21.25-.76-2.31-1-2.6-1-3.33,0-.53.33-.85,1.1-.85Z"/>
      <path class="cls-1" d="M657.9,217.47a16.25,16.25,0,0,1,.25-2.83c.73-4.51,3.93-8,9.77-8,6,0,9.05,4.14,9.05,8.68,0,1.79-.65,2.52-2.11,2.52l-12.46,0c-.85,0-.89.36-.89,1,0,3.86,2.4,6.73,6.33,6.73,5.23,0,5-3.69,7-3.69a1.27,1.27,0,0,1,1.38,1.46c0,1.63-2.52,5.28-8.52,5.28-6.69,0-9.82-4.47-9.82-11.08m3.86-2.92c0,.9.28,1,1.17,1h9.7c.64,0,.85-.57.85-1.14,0-2.07-1.66-4.66-5.76-4.66s-6,3-6,4.78"/>
      <path class="cls-1" d="M685.81,201a2.56,2.56,0,1,1-2.52-2.56,2.36,2.36,0,0,1,2.52,2.56m-.85,7.46v18.58c0,.73-.21,1-1.79,1s-1.74-.28-1.74-1.18.08-16.3.08-18.53c0-1,.36-1.3,1.7-1.3s1.75.2,1.75,1.38"/>
      <path class="cls-1" d="M694.41,200.19v22.88c0,1.38.08,2.19,1.21,2.19.61,0,.81-.28,1.51-.28s1,.56,1,1.42-1.18,1.66-3.12,1.66c-3.33,0-4.14-1.74-4.14-4.62,0-.81-.08-21.46-.08-23.16,0-1.1.4-1.71,1.74-1.71s1.83.57,1.83,1.62"/>
      <path class="cls-1" d="M705.48,201a2.56,2.56,0,1,1-2.51-2.56,2.35,2.35,0,0,1,2.51,2.56m-.85,7.46v18.58c0,.73-.21,1-1.79,1s-1.74-.28-1.74-1.18.08-16.3.08-18.53c0-1,.37-1.3,1.71-1.3s1.74.2,1.74,1.38"/>
      <path class="cls-1" d="M719.19,231.71c4.22,0,5.6-1.34,5.6-3.25,0-5.39-15.33-1-15.33-13.05,0-5.85,4.22-8.81,9.2-8.81,2.36,0,2.84.49,4.71.49h5.47c.81,0,1.34.37,1.34,1.54s-.45,1.5-1.26,1.5h-1.74c-.65,0-.73.17-.73.33,0,.4,1.63,1.41,1.63,4.9,0,6.29-4.26,6.49-4.26,7.51s4.9.53,4.9,5.55c0,3.33-2.51,6.41-9.81,6.41-6.86,0-9.74-4.09-9.74-6.32a1.47,1.47,0,0,1,1.5-1.59c2.56,0,2.48,4.79,8.52,4.79m-.49-10.14c3.53,0,5.64-2.23,5.64-6.16,0-3.54-2.11-5.73-5.64-5.73s-5.55,2.11-5.55,5.73c0,3.85,2.15,6.16,5.55,6.16"/>
      <path class="cls-1" d="M737,209.2c0,.53.12.61.28.61.45,0,1.42-3.21,6.25-3.21,3.77,0,7.46,1.54,7.46,8.32,0,2.31,0,4.7,0,11.84,0,.9-.33,1.42-1.62,1.42-1.75,0-1.87-.24-1.83-1.46s0-9.81,0-11.88c0-3.21-1.62-5.15-4.46-5.15s-6,1.82-6,5.84c0,4.86,0,10.06,0,11.76,0,.53-.49.77-1.18.77-.44,0-.24,0-1,0-1.05,0-1.34-.44-1.34-1.74V200.28c0-1.1.41-1.71,1.74-1.71s1.67.57,1.67,1.63c0,3.08-.08,4.5-.08,9"/>
      <path class="cls-1" d="M755.09,217.47a17.26,17.26,0,0,1,.24-2.83c.73-4.51,3.94-8,9.78-8,6,0,9,4.14,9,8.68,0,1.79-.65,2.52-2.11,2.52l-12.45,0c-.85,0-.89.36-.89,1,0,3.86,2.39,6.73,6.32,6.73,5.24,0,5-3.69,7-3.69a1.27,1.27,0,0,1,1.38,1.46c0,1.63-2.51,5.28-8.52,5.28-6.69,0-9.81-4.47-9.81-11.08m3.85-2.92c0,.9.29,1,1.18,1h9.69c.65,0,.85-.57.85-1.14,0-2.07-1.66-4.66-5.76-4.66s-6,3-6,4.78"/>
      <path class="cls-1" d="M783,201a2.4,2.4,0,0,1-2.51,2.67,2.43,2.43,0,0,1-2.6-2.59,2.4,2.4,0,0,1,2.6-2.64A2.35,2.35,0,0,1,783,201m-.85,7.46v18.58c0,.73-.2,1-1.78,1s-1.75-.28-1.75-1.18.08-16.3.08-18.53c0-1,.37-1.3,1.71-1.3s1.74.2,1.74,1.38"/>
      <path class="cls-1" d="M804.69,198.57c1.34,0,1.71.61,1.71,1.67,0,1.33.12,23.68.12,26.77,0,.89,0,1.17-1.5,1.17-1.26,0-1.42-.12-1.54-1.3-.17-1.54-.17-2-.49-2-.65,0-1.5,3.7-7.7,3.7-5.08,0-8.6-4.3-8.6-11.2s4.3-10.75,9.16-10.75c6.17,0,6.53,3.29,7,3.29.2,0,.24-.12.24-.77,0-1-.16-4.34-.16-8.84,0-1.1.4-1.71,1.74-1.71m-14.52,19.15c0,4.38,2.07,7.75,6.41,7.75,4,0,6.49-2.93,6.49-8.08,0-4.82-2.55-7.74-6-7.74-5.07,0-6.9,3.89-6.9,8.07"/>
    </g>
  </g>
</svg>
